<mxfile host="www.draw.io" modified="2020-03-08T15:15:19.388Z" agent="Mozilla/5.0 (Macintosh; Intel Mac OS X 10_12_6) AppleWebKit/537.36 (KHTML, like Gecko) Chrome/80.0.3987.132 Safari/537.36" etag="-4MQ4FOWVDXVkdMp-nzQ" version="12.8.1" type="github">
  <diagram id="6a731a19-8d31-9384-78a2-239565b7b9f0" name="拓扑控制技术">
    <mxGraphModel dx="1106" dy="593" grid="1" gridSize="10" guides="1" tooltips="1" connect="1" arrows="1" fold="1" page="1" pageScale="1" pageWidth="1169" pageHeight="827" background="#ffffff" math="0" shadow="0">
      <root>
        <mxCell id="0" />
        <mxCell id="1" parent="0" />
        <mxCell id="ttyujtRelshkrmtNdgl2-91" style="edgeStyle=orthogonalEdgeStyle;rounded=0;orthogonalLoop=1;jettySize=auto;html=1;exitX=0.5;exitY=1;exitDx=0;exitDy=0;exitPerimeter=0;entryX=0.5;entryY=0;entryDx=0;entryDy=0;entryPerimeter=0;" edge="1" parent="1" source="ttyujtRelshkrmtNdgl2-55" target="ttyujtRelshkrmtNdgl2-85">
          <mxGeometry relative="1" as="geometry" />
        </mxCell>
        <mxCell id="ttyujtRelshkrmtNdgl2-55" value="开始" style="strokeWidth=2;html=1;shape=mxgraph.flowchart.terminator;whiteSpace=wrap;" vertex="1" parent="1">
          <mxGeometry x="385" y="360" width="100" height="40" as="geometry" />
        </mxCell>
        <mxCell id="ttyujtRelshkrmtNdgl2-71" style="edgeStyle=orthogonalEdgeStyle;rounded=0;orthogonalLoop=1;jettySize=auto;html=1;exitX=0.5;exitY=1;exitDx=0;exitDy=0;exitPerimeter=0;entryX=0.5;entryY=0;entryDx=0;entryDy=0;" edge="1" parent="1" source="ttyujtRelshkrmtNdgl2-59" target="ttyujtRelshkrmtNdgl2-68">
          <mxGeometry relative="1" as="geometry" />
        </mxCell>
        <mxCell id="ttyujtRelshkrmtNdgl2-84" style="edgeStyle=orthogonalEdgeStyle;rounded=0;orthogonalLoop=1;jettySize=auto;html=1;exitX=1;exitY=0.5;exitDx=0;exitDy=0;exitPerimeter=0;" edge="1" parent="1" source="ttyujtRelshkrmtNdgl2-59">
          <mxGeometry relative="1" as="geometry">
            <mxPoint x="435" y="680" as="targetPoint" />
            <Array as="points">
              <mxPoint x="545" y="555" />
              <mxPoint x="545" y="680" />
            </Array>
          </mxGeometry>
        </mxCell>
        <mxCell id="ttyujtRelshkrmtNdgl2-59" value="&lt;span style=&quot;font-size: 16px&quot;&gt;是否断开子网&lt;/span&gt;" style="strokeWidth=2;html=1;shape=mxgraph.flowchart.decision;whiteSpace=wrap;" vertex="1" parent="1">
          <mxGeometry x="357.5" y="530" width="155" height="50" as="geometry" />
        </mxCell>
        <mxCell id="ttyujtRelshkrmtNdgl2-72" style="edgeStyle=orthogonalEdgeStyle;rounded=0;orthogonalLoop=1;jettySize=auto;html=1;exitX=0.5;exitY=1;exitDx=0;exitDy=0;entryX=0.5;entryY=0;entryDx=0;entryDy=0;entryPerimeter=0;" edge="1" parent="1" source="ttyujtRelshkrmtNdgl2-68">
          <mxGeometry relative="1" as="geometry">
            <mxPoint x="435" y="710" as="targetPoint" />
          </mxGeometry>
        </mxCell>
        <mxCell id="ttyujtRelshkrmtNdgl2-68" value="删除网卡" style="rounded=0;whiteSpace=wrap;html=1;strokeWidth=2;" vertex="1" parent="1">
          <mxGeometry x="392.5" y="620" width="85" height="40" as="geometry" />
        </mxCell>
        <mxCell id="ttyujtRelshkrmtNdgl2-70" value="结束" style="shape=parallelogram;html=1;strokeWidth=2;perimeter=parallelogramPerimeter;whiteSpace=wrap;rounded=1;arcSize=12;size=0.23;" vertex="1" parent="1">
          <mxGeometry x="385" y="980" width="100" height="40" as="geometry" />
        </mxCell>
        <mxCell id="ttyujtRelshkrmtNdgl2-76" style="edgeStyle=orthogonalEdgeStyle;rounded=0;orthogonalLoop=1;jettySize=auto;html=1;exitX=0.5;exitY=1;exitDx=0;exitDy=0;entryX=0.5;entryY=0;entryDx=0;entryDy=0;" edge="1" parent="1" source="ttyujtRelshkrmtNdgl2-74" target="ttyujtRelshkrmtNdgl2-75">
          <mxGeometry relative="1" as="geometry" />
        </mxCell>
        <mxCell id="ttyujtRelshkrmtNdgl2-74" value="创建网卡" style="rounded=0;whiteSpace=wrap;html=1;strokeWidth=2;" vertex="1" parent="1">
          <mxGeometry x="392.5" y="810" width="85" height="40" as="geometry" />
        </mxCell>
        <mxCell id="ttyujtRelshkrmtNdgl2-79" style="edgeStyle=orthogonalEdgeStyle;rounded=0;orthogonalLoop=1;jettySize=auto;html=1;exitX=0.5;exitY=1;exitDx=0;exitDy=0;entryX=0.5;entryY=0;entryDx=0;entryDy=0;" edge="1" parent="1" source="ttyujtRelshkrmtNdgl2-75" target="ttyujtRelshkrmtNdgl2-70">
          <mxGeometry relative="1" as="geometry" />
        </mxCell>
        <mxCell id="ttyujtRelshkrmtNdgl2-75" value="指定网卡所在子网" style="rounded=0;whiteSpace=wrap;html=1;strokeWidth=2;" vertex="1" parent="1">
          <mxGeometry x="392.5" y="890" width="85" height="40" as="geometry" />
        </mxCell>
        <mxCell id="ttyujtRelshkrmtNdgl2-83" style="edgeStyle=orthogonalEdgeStyle;rounded=0;orthogonalLoop=1;jettySize=auto;html=1;exitX=0.5;exitY=0;exitDx=0;exitDy=0;entryX=0.787;entryY=0.226;entryDx=0;entryDy=0;entryPerimeter=0;" edge="1" parent="1" source="ttyujtRelshkrmtNdgl2-81" target="ttyujtRelshkrmtNdgl2-85">
          <mxGeometry relative="1" as="geometry">
            <mxPoint x="457.365" y="410.505" as="targetPoint" />
            <Array as="points">
              <mxPoint x="628" y="410" />
              <mxPoint x="480" y="410" />
              <mxPoint x="480" y="441" />
            </Array>
          </mxGeometry>
        </mxCell>
        <mxCell id="ttyujtRelshkrmtNdgl2-81" value="等待" style="rounded=0;whiteSpace=wrap;html=1;strokeWidth=2;" vertex="1" parent="1">
          <mxGeometry x="585" y="444.5" width="85" height="35.5" as="geometry" />
        </mxCell>
        <mxCell id="ttyujtRelshkrmtNdgl2-86" style="edgeStyle=orthogonalEdgeStyle;rounded=0;orthogonalLoop=1;jettySize=auto;html=1;exitX=0.5;exitY=1;exitDx=0;exitDy=0;exitPerimeter=0;entryX=0.5;entryY=0;entryDx=0;entryDy=0;entryPerimeter=0;" edge="1" parent="1" source="ttyujtRelshkrmtNdgl2-85" target="ttyujtRelshkrmtNdgl2-59">
          <mxGeometry relative="1" as="geometry" />
        </mxCell>
        <mxCell id="ttyujtRelshkrmtNdgl2-88" style="edgeStyle=orthogonalEdgeStyle;rounded=0;orthogonalLoop=1;jettySize=auto;html=1;exitX=1;exitY=0.5;exitDx=0;exitDy=0;exitPerimeter=0;entryX=0;entryY=0.5;entryDx=0;entryDy=0;" edge="1" parent="1" source="ttyujtRelshkrmtNdgl2-85" target="ttyujtRelshkrmtNdgl2-81">
          <mxGeometry relative="1" as="geometry" />
        </mxCell>
        <mxCell id="ttyujtRelshkrmtNdgl2-85" value="&lt;span style=&quot;font-size: 16px&quot;&gt;是否到达&lt;br&gt;预订时间&lt;/span&gt;" style="strokeWidth=2;html=1;shape=mxgraph.flowchart.decision;whiteSpace=wrap;" vertex="1" parent="1">
          <mxGeometry x="357.5" y="437" width="155" height="53" as="geometry" />
        </mxCell>
        <mxCell id="ttyujtRelshkrmtNdgl2-92" style="edgeStyle=orthogonalEdgeStyle;rounded=0;orthogonalLoop=1;jettySize=auto;html=1;exitX=0.5;exitY=1;exitDx=0;exitDy=0;exitPerimeter=0;entryX=0.5;entryY=0;entryDx=0;entryDy=0;" edge="1" parent="1" source="ttyujtRelshkrmtNdgl2-87" target="ttyujtRelshkrmtNdgl2-74">
          <mxGeometry relative="1" as="geometry" />
        </mxCell>
        <mxCell id="ttyujtRelshkrmtNdgl2-93" style="edgeStyle=orthogonalEdgeStyle;rounded=0;orthogonalLoop=1;jettySize=auto;html=1;exitX=1;exitY=0.5;exitDx=0;exitDy=0;exitPerimeter=0;" edge="1" parent="1" source="ttyujtRelshkrmtNdgl2-87">
          <mxGeometry relative="1" as="geometry">
            <mxPoint x="435" y="960" as="targetPoint" />
            <Array as="points">
              <mxPoint x="550" y="735" />
              <mxPoint x="550" y="960" />
            </Array>
          </mxGeometry>
        </mxCell>
        <mxCell id="ttyujtRelshkrmtNdgl2-87" value="&lt;span style=&quot;font-size: 16px&quot;&gt;是否连接子网&lt;/span&gt;" style="strokeWidth=2;html=1;shape=mxgraph.flowchart.decision;whiteSpace=wrap;" vertex="1" parent="1">
          <mxGeometry x="357.5" y="710" width="155" height="50" as="geometry" />
        </mxCell>
        <mxCell id="ttyujtRelshkrmtNdgl2-89" value="否" style="text;html=1;align=center;verticalAlign=middle;resizable=0;points=[];autosize=1;" vertex="1" parent="1">
          <mxGeometry x="530" y="444.5" width="30" height="20" as="geometry" />
        </mxCell>
        <mxCell id="ttyujtRelshkrmtNdgl2-90" value="是" style="text;html=1;align=center;verticalAlign=middle;resizable=0;points=[];autosize=1;" vertex="1" parent="1">
          <mxGeometry x="440" y="497" width="30" height="20" as="geometry" />
        </mxCell>
        <mxCell id="ttyujtRelshkrmtNdgl2-94" value="否" style="text;html=1;align=center;verticalAlign=middle;resizable=0;points=[];autosize=1;" vertex="1" parent="1">
          <mxGeometry x="512.5" y="710" width="30" height="20" as="geometry" />
        </mxCell>
        <mxCell id="ttyujtRelshkrmtNdgl2-95" value="是" style="text;html=1;align=center;verticalAlign=middle;resizable=0;points=[];autosize=1;" vertex="1" parent="1">
          <mxGeometry x="440" y="770" width="30" height="20" as="geometry" />
        </mxCell>
        <mxCell id="ttyujtRelshkrmtNdgl2-96" value="否" style="text;html=1;align=center;verticalAlign=middle;resizable=0;points=[];autosize=1;" vertex="1" parent="1">
          <mxGeometry x="512.5" y="530" width="30" height="20" as="geometry" />
        </mxCell>
        <mxCell id="ttyujtRelshkrmtNdgl2-97" value="是" style="text;html=1;align=center;verticalAlign=middle;resizable=0;points=[];autosize=1;" vertex="1" parent="1">
          <mxGeometry x="440" y="580" width="30" height="20" as="geometry" />
        </mxCell>
      </root>
    </mxGraphModel>
  </diagram>
</mxfile>
